{
  "accessors": [
    {
      "bufferView": 2,
      "componentType": 5126,
      "count": 564,
      "max": [
        2.615731716156006,
        2.1217334270477295,
        1.9616072177886963
      ],
      "min": [
        -2.615731716156006,
        -1.4027838706970215,
        -0.9559040069580078
      ],
      "type": "VEC3"
    },
    {
      "bufferView": 2,
      "byteOffset": 6768,
      "componentType": 5126,
      "count": 564,
      "max": [
        0.9997186660766602,
        1.0,
        0.9966070055961609
      ],
      "min": [
        -0.9997186660766602,
        -0.9999609589576721,
        -0.9854926466941833
      ],
      "type": "VEC3"
    },
    {
      "bufferView": 1,
      "componentType": 5126,
      "count": 564,
      "max": [
        1.0,
        1.0
      ],
      "min": [
        0.2499999850988388,
        0.01000000536441803
      ],
      "type": "VEC2"
    },
    {
      "bufferView": 0,
      "componentType": 5125,
      "count": 852,
      "type": "SCALAR"
    },
    {
      "bufferView": 2,
      "byteOffset": 13536,
      "componentType": 5126,
      "count": 196,
      "max": [
        2.994267225265503,
        2.184992790222168,
        2.004270553588867
      ],
      "min": [
        -2.994267225265503,
        -1.1845972537994385,
        -0.13640521466732025
      ],
      "type": "VEC3"
    },
    {
      "bufferView": 2,
      "byteOffset": 15888,
      "componentType": 5126,
      "count": 196,
      "max": [
        0.9995601773262024,
        0.9916085004806519,
        0.9987958669662476
      ],
      "min": [
        -0.9995601773262024,
        -0.9999580383300781,
        -0.9886507987976074
      ],
      "type": "VEC3"
    },
    {
      "bufferView": 1,
      "byteOffset": 4512,
      "componentType": 5126,
      "count": 196,
      "max": [
        0.8342411518096924,
        0.9926396012306213
      ],
      "min": [
        0.4981677532196045,
        0.6159771680831909
      ],
      "type": "VEC2"
    },
    {
      "bufferView": 0,
      "byteOffset": 3408,
      "componentType": 5125,
      "count": 294,
      "type": "SCALAR"
    },
    {
      "bufferView": 2,
      "byteOffset": 18240,
      "componentType": 5126,
      "count": 106,
      "max": [
        0.8700760006904602,
        -1.402783751487732,
        0.8700760006904602
      ],
      "min": [
        -0.8700760006904602,
        -2.0,
        -0.8700759410858154
      ],
      "type": "VEC3"
    },
    {
      "bufferView": 2,
      "byteOffset": 19512,
      "componentType": 5126,
      "count": 106,
      "max": [
        0.9238795042037964,
        8.01293609242748e-08,
        0.9238795638084412
      ],
      "min": [
        -0.9238795042037964,
        -1.0,
        -0.9238795638084412
      ],
      "type": "VEC3"
    },
    {
      "bufferView": 1,
      "byteOffset": 6080,
      "componentType": 5126,
      "count": 106,
      "max": [
        1.0,
        0.5833333730697632
      ],
      "min": [
        0.5,
        0.07940298318862915
      ],
      "type": "VEC2"
    },
    {
      "bufferView": 0,
      "byteOffset": 4584,
      "componentType": 5125,
      "count": 162,
      "type": "SCALAR"
    },
    {
      "bufferView": 2,
      "byteOffset": 20784,
      "componentType": 5126,
      "count": 48,
      "max": [
        0.5915887951850891,
        0.4978201985359192,
        1.536149501800537
      ],
      "min": [
        -0.5915887951850891,
        -0.7941249012947083,
        0.6732981204986572
      ],
      "type": "VEC3"
    },
    {
      "bufferView": 2,
      "byteOffset": 21360,
      "componentType": 5126,
      "count": 48,
      "max": [
        0.9714646935462952,
        0.9509731531143188,
        0.9263211488723755
      ],
      "min": [
        -0.9714646935462952,
        -0.9042757749557495,
        0.21345296502113342
      ],
      "type": "VEC3"
    },
    {
      "bufferView": 1,
      "byteOffset": 6928,
      "componentType": 5126,
      "count": 48,
      "max": [
        0.6096002459526062,
        0.8222683668136597
      ],
      "min": [
        0.4997241199016571,
        0.6761327385902405
      ],
      "type": "VEC2"
    },
    {
      "bufferView": 0,
      "byteOffset": 5232,
      "componentType": 5125,
      "count": 72,
      "type": "SCALAR"
    },
    {
      "bufferView": 2,
      "byteOffset": 21936,
      "componentType": 5126,
      "count": 56,
      "max": [
        1.6781184673309326,
        0.6059682369232178,
        0.32757556438446045
      ],
      "min": [
        -1.6776683330535889,
        0.38455629348754883,
        -0.3095026910305023
      ],
      "type": "VEC3"
    },
    {
      "bufferView": 2,
      "byteOffset": 22608,
      "componentType": 5126,
      "count": 56,
      "max": [
        0.8452082276344299,
        0.9555126428604126,
        0.9248403310775757
      ],
      "min": [
        -0.8596628904342651,
        -0.9651599526405334,
        -0.8326128721237183
      ],
      "type": "VEC3"
    },
    {
      "bufferView": 1,
      "byteOffset": 7312,
      "componentType": 5126,
      "count": 56,
      "max": [
        0.8409726619720459,
        1.0000001192092896
      ],
      "min": [
        0.15902742743492126,
        0.9999998807907104
      ],
      "type": "VEC2"
    },
    {
      "bufferView": 0,
      "byteOffset": 5520,
      "componentType": 5125,
      "count": 84,
      "type": "SCALAR"
    },
    {
      "bufferView": 2,
      "byteOffset": 23280,
      "componentType": 5126,
      "count": 208,
      "max": [
        1.5337378978729248,
        0.6177520751953125,
        0.3715183138847351
      ],
      "min": [
        -1.4704222679138184,
        -0.3715183436870575,
        -0.37151840329170227
      ],
      "type": "VEC3"
    },
    {
      "bufferView": 2,
      "byteOffset": 25776,
      "componentType": 5126,
      "count": 208,
      "max": [
        0.9238795638084412,
        0.9974042177200317,
        0.9962706565856934
      ],
      "min": [
        -0.9238795638084412,
        -1.0,
        -0.9416170120239258
      ],
      "type": "VEC3"
    },
    {
      "bufferView": 1,
      "byteOffset": 7760,
      "componentType": 5126,
      "count": 208,
      "max": [
        1.0,
        1.0000001192092896
      ],
      "min": [
        0.0,
        0.01000000536441803
      ],
      "type": "VEC2"
    },
    {
      "bufferView": 0,
      "byteOffset": 5856,
      "componentType": 5125,
      "count": 318,
      "type": "SCALAR"
    },
    {
      "bufferView": 2,
      "byteOffset": 28272,
      "componentType": 5126,
      "count": 104,
      "max": [
        0.3355281949043274,
        1.0407692193984985,
        0.3355281949043274
      ],
      "min": [
        -0.3355281949043274,
        0.6177520751953125,
        -0.33552825450897217
      ],
      "type": "VEC3"
    },
    {
      "bufferView": 2,
      "byteOffset": 29520,
      "componentType": 5126,
      "count": 104,
      "max": [
        0.8421257138252258,
        1.0,
        0.8421255350112915
      ],
      "min": [
        -0.842125654220581,
        0.4112774729728699,
        -0.842125654220581
      ],
      "type": "VEC3"
    },
    {
      "bufferView": 1,
      "byteOffset": 9424,
      "componentType": 5126,
      "count": 104,
      "max": [
        1.0,
        1.0000001192092896
      ],
      "min": [
        0.0,
        0.01000000536441803
      ],
      "type": "VEC2"
    },
    {
      "bufferView": 0,
      "byteOffset": 7128,
      "componentType": 5125,
      "count": 162,
      "type": "SCALAR"
    },
    {
      "bufferView": 3,
      "componentType": 5126,
      "count": 240,
      "max": [
        10.0
      ],
      "min": [
        0.0416666679084301
      ],
      "type": "SCALAR"
    },
    {
      "bufferView": 4,
      "componentType": 5126,
      "count": 240,
      "max": [
        -7.431505633093138e-09,
        4.0,
        1.682962417602539
      ],
      "min": [
        -7.450580596923828e-09,
        -2.2591674309069276e-08,
        1.682962417602539
      ],
      "type": "VEC3"
    },
    {
      "bufferView": 3,
      "byteOffset": 960,
      "componentType": 5126,
      "count": 240,
      "max": [
        10.0
      ],
      "min": [
        0.0416666679084301
      ],
      "type": "SCALAR"
    },
    {
      "bufferView": 5,
      "componentType": 5126,
      "count": 240,
      "max": [
        0.7071068286895752,
        0.7069630026817322,
        0.7069629430770874,
        0.7071067690849304
      ],
      "min": [
        0.01199742965400219,
        -0.707004964351654,
        -0.7070050239562988,
        0.01199742965400219
      ],
      "type": "VEC4"
    },
    {
      "bufferView": 3,
      "byteOffset": 1920,
      "componentType": 5126,
      "count": 16,
      "max": [
        10.0
      ],
      "min": [
        0.0416666679084301
      ],
      "type": "SCALAR"
    },
    {
      "bufferView": 4,
      "byteOffset": 2880,
      "componentType": 5126,
      "count": 16,
      "max": [
        1.0,
        1.0,
        1.0
      ],
      "min": [
        0.9999998807907104,
        1.0,
        0.9999998807907104
      ],
      "type": "VEC3"
    },
    {
      "bufferView": 3,
      "byteOffset": 1984,
      "componentType": 5126,
      "count": 240,
      "max": [
        10.0
      ],
      "min": [
        0.0416666679084301
      ],
      "type": "SCALAR"
    },
    {
      "bufferView": 4,
      "byteOffset": 3072,
      "componentType": 5126,
      "count": 240,
      "max": [
        0.0,
        4.0,
        -0.0
      ],
      "min": [
        0.0,
        0.0,
        -0.0
      ],
      "type": "VEC3"
    },
    {
      "bufferView": 3,
      "byteOffset": 2944,
      "componentType": 5126,
      "count": 240,
      "max": [
        10.0
      ],
      "min": [
        0.0416666679084301
      ],
      "type": "SCALAR"
    },
    {
      "bufferView": 5,
      "byteOffset": 3840,
      "componentType": 5126,
      "count": 240,
      "max": [
        -0.7010574340820313,
        0.06845563650131226,
        0.09229597449302673,
        0.70710688829422
      ],
      "min": [
        -0.7071067094802856,
        -0.09229596704244614,
        -0.06845565140247345,
        0.7010573744773865
      ],
      "type": "VEC4"
    }
  ],
  "animations": [
    {
      "channels": [
        {
          "sampler": 0,
          "target": {
            "node": 8,
            "path": "translation"
          }
        },
        {
          "sampler": 1,
          "target": {
            "node": 8,
            "path": "rotation"
          }
        },
        {
          "sampler": 2,
          "target": {
            "node": 8,
            "path": "scale"
          }
        },
        {
          "sampler": 3,
          "target": {
            "node": 3,
            "path": "translation"
          }
        },
        {
          "sampler": 4,
          "target": {
            "node": 3,
            "path": "rotation"
          }
        }
      ],
      "name": "Animation",
      "samplers": [
        {
          "input": 28,
          "interpolation": "LINEAR",
          "output": 29
        },
        {
          "input": 30,
          "interpolation": "LINEAR",
          "output": 31
        },
        {
          "input": 32,
          "interpolation": "LINEAR",
          "output": 33
        },
        {
          "input": 34,
          "interpolation": "LINEAR",
          "output": 35
        },
        {
          "input": 36,
          "interpolation": "LINEAR",
          "output": 37
        }
      ]
    }
  ],
  "asset": {
    "extras": {
      "author": "InfDev (https://sketchfab.com/InfDev)",
      "license": "CC-BY-4.0 (http://creativecommons.org/licenses/by/4.0/)",
      "source": "https://sketchfab.com/3d-models/low-poly-plane-with-animation-78282ac2c7a64dd8a7f39cffd9e201d7",
      "title": "Low Poly Plane With Animation"
    },
    "generator": "Sketchfab-12.78.0",
    "version": "2.0"
  },
  "bufferViews": [
    {
      "buffer": 0,
      "byteLength": 7776,
      "name": "floatBufferViews",
      "target": 34963
    },
    {
      "buffer": 0,
      "byteLength": 10256,
      "byteOffset": 7776,
      "byteStride": 8,
      "name": "floatBufferViews",
      "target": 34962
    },
    {
      "buffer": 0,
      "byteLength": 30768,
      "byteOffset": 18032,
      "byteStride": 12,
      "name": "floatBufferViews",
      "target": 34962
    },
    {
      "buffer": 0,
      "byteLength": 3904,
      "byteOffset": 48800,
      "name": "floatBufferViews"
    },
    {
      "buffer": 0,
      "byteLength": 5952,
      "byteOffset": 52704,
      "byteStride": 12,
      "name": "floatBufferViews"
    },
    {
      "buffer": 0,
      "byteLength": 7680,
      "byteOffset": 58656,
      "byteStride": 16,
      "name": "floatBufferViews"
    }
  ],
  "buffers": [
    {
      "byteLength": 66336,
      "uri": "scene.bin"
    }
  ],
  "materials": [
    {
      "doubleSided": true,
      "name": "material",
      "pbrMetallicRoughness": {
        "baseColorFactor": [
          0.8,
          0.0563384,
          0.0402233,
          1.0
        ],
        "metallicFactor": 0.0,
        "roughnessFactor": 0.5
      }
    },
    {
      "doubleSided": true,
      "name": "Yellow",
      "pbrMetallicRoughness": {
        "baseColorFactor": [
          0.8,
          0.628829,
          0.018564,
          1.0
        ],
        "metallicFactor": 0.0,
        "roughnessFactor": 0.5
      }
    },
    {
      "doubleSided": true,
      "name": "Blue",
      "pbrMetallicRoughness": {
        "baseColorFactor": [
          0.0406562,
          0.189389,
          0.8,
          1.0
        ],
        "metallicFactor": 0.0,
        "roughnessFactor": 0.5
      }
    },
    {
      "doubleSided": true,
      "name": "Grey",
      "pbrMetallicRoughness": {
        "baseColorFactor": [
          0.108789,
          0.108789,
          0.108789,
          1.0
        ],
        "metallicFactor": 0.0,
        "roughnessFactor": 0.5
      }
    }
  ],
  "meshes": [
    {
      "name": "Object_0",
      "primitives": [
        {
          "attributes": {
            "NORMAL": 1,
            "POSITION": 0,
            "TEXCOORD_0": 2
          },
          "indices": 3,
          "material": 0,
          "mode": 4
        }
      ]
    },
    {
      "name": "Object_1",
      "primitives": [
        {
          "attributes": {
            "NORMAL": 5,
            "POSITION": 4,
            "TEXCOORD_0": 6
          },
          "indices": 7,
          "material": 1,
          "mode": 4
        }
      ]
    },
    {
      "name": "Object_2",
      "primitives": [
        {
          "attributes": {
            "NORMAL": 9,
            "POSITION": 8,
            "TEXCOORD_0": 10
          },
          "indices": 11,
          "material": 2,
          "mode": 4
        }
      ]
    },
    {
      "name": "Object_3",
      "primitives": [
        {
          "attributes": {
            "NORMAL": 13,
            "POSITION": 12,
            "TEXCOORD_0": 14
          },
          "indices": 15,
          "material": 3,
          "mode": 4
        }
      ]
    },
    {
      "name": "Object_4",
      "primitives": [
        {
          "attributes": {
            "NORMAL": 17,
            "POSITION": 16,
            "TEXCOORD_0": 18
          },
          "indices": 19,
          "material": 1,
          "mode": 4
        }
      ]
    },
    {
      "name": "Object_5",
      "primitives": [
        {
          "attributes": {
            "NORMAL": 21,
            "POSITION": 20,
            "TEXCOORD_0": 22
          },
          "indices": 23,
          "material": 3,
          "mode": 4
        }
      ]
    },
    {
      "name": "Object_6",
      "primitives": [
        {
          "attributes": {
            "NORMAL": 25,
            "POSITION": 24,
            "TEXCOORD_0": 26
          },
          "indices": 27,
          "material": 0,
          "mode": 4
        }
      ]
    }
  ],
  "nodes": [
    {
      "children": [
        1
      ],
      "matrix": [
        1.0,
        0.0,
        0.0,
        0.0,
        0.0,
        2.220446049250313e-16,
        -1.0,
        0.0,
        0.0,
        1.0,
        2.220446049250313e-16,
        0.0,
        0.0,
        0.0,
        0.0,
        1.0
      ],
      "name": "Sketchfab_model"
    },
    {
      "children": [
        2
      ],
      "name": "root"
    },
    {
      "children": [
        3,
        8
      ],
      "matrix": [
        1.0,
        0.0,
        0.0,
        0.0,
        0.0,
        2.220446049250313e-16,
        1.0,
        0.0,
        0.0,
        -1.0,
        2.220446049250313e-16,
        0.0,
        0.0,
        0.0,
        0.0,
        1.0
      ],
      "name": "GLTF_SceneRootNode"
    },
    {
      "children": [
        4,
        5,
        6,
        7
      ],
      "name": "Cylinder_0",
      "rotation": [
        -0.7071067094802856,
        -0.0003016772388946265,
        0.0003016772388946265,
        0.7071067094802856
      ],
      "translation": [
        0.0,
        3.996703624725342,
        0.0
      ]
    },
    {
      "mesh": 0,
      "name": "Object_4"
    },
    {
      "mesh": 1,
      "name": "Object_5"
    },
    {
      "mesh": 2,
      "name": "Object_6"
    },
    {
      "mesh": 3,
      "name": "Object_7"
    },
    {
      "children": [
        9,
        10,
        11
      ],
      "name": "Cylinder.001_1",
      "rotation": [
        0.7071068286895752,
        0.0,
        0.0,
        0.7071068286895752
      ],
      "translation": [
        0.0,
        3.996703624725342,
        1.682962417602539
      ]
    },
    {
      "mesh": 4,
      "name": "Object_9"
    },
    {
      "mesh": 5,
      "name": "Object_10"
    },
    {
      "mesh": 6,
      "name": "Object_11"
    }
  ],
  "scene": 0,
  "scenes": [
    {
      "name": "Sketchfab_Scene",
      "nodes": [
        0
      ]
    }
  ]
}
